<svg height="90" viewBox="0 0 90 90" width="90" xmlns="http://www.w3.org/2000/svg"><g fill="#ec5447" fill-rule="evenodd" transform="translate(14 8)"><path d="m25.4521 48.3387c-1.03 0-1.973-.684-2.259-1.723-.322-1.177-.486-2.396-.486-3.627v-11.261c0-4.422 3.598-8.02 8.02-8.02 3.097 0 5.948 1.813 7.265 4.617.549 1.171.045 2.569-1.126 3.118-1.176.545-2.569.045-3.118-1.126-.547-1.168-1.734-1.922-3.021-1.922-1.838 0-3.334 1.495-3.334 3.333v11.261c0 .812.107 1.616.32 2.386.342 1.248-.392 2.537-1.64 2.879-.207.058-.416.085-.621.085"/><path d="m36.4048 56.6854c-2.167 0-4.329-.52-6.247-1.504-1.151-.592-1.607-2.003-1.016-3.154.591-1.152 2.001-1.61 3.154-1.017 1.279.655 2.661.989 4.109.989 4.968 0 9.01-4.042 9.01-9.01v-11.262c0-8.098-6.588-14.688-14.688-14.688-1.294 0-2.343-1.049-2.343-2.343s1.049-2.343 2.343-2.343c10.682 0 19.374 8.691 19.374 19.374v11.262c0 7.553-6.143 13.696-13.696 13.696"/><path d="m36.4048 68.0389c-13.813 0-25.051-11.238-25.051-25.05v-11.262c0-6.853 3.678-13.263 9.598-16.73 1.117-.654 2.554-.28 3.206.838.655 1.117.279 2.552-.837 3.207-4.491 2.629-7.28 7.491-7.28 12.685v11.262c0 11.23 9.135 20.363 20.364 20.363 3.308 0 6.46-.766 9.371-2.278 1.144-.596 2.562-.15 3.159.999.597 1.148.148 2.563-.999 3.159-3.533 1.836-7.52 2.807-11.531 2.807"/><path d="m53.9306 59.7684c-.524 0-1.053-.176-1.488-.534-1-.824-1.141-2.302-.319-3.299 2.995-3.632 4.644-8.229 4.644-12.946v-11.262c0-10.8-6.791-20.603-16.9-24.392-.003 0-2.606-.866-4.616-1.228-2.109-.381-4.535-.421-4.559-.421-14.325 0-26.006 11.683-26.006 26.041v11.262c0 1.295-1.049 2.343-2.343 2.343-1.295 0-2.344-1.048-2.344-2.343v-11.262c0-16.943 13.785-30.728 30.727-30.728.15.002 2.871.046 5.358.495 2.37.428 5.231 1.383 5.35 1.425 12.005 4.498 20.019 16.066 20.019 28.808v11.262c0 5.803-2.03 11.458-5.713 15.925-.465.563-1.135.854-1.81.854"/><path d="m16.5317 72.9999c-.474 0-.953-.143-1.366-.441-6.543-4.706-11.399-11.537-13.676-19.229-.367-1.241.342-2.544 1.583-2.91 1.243-.368 2.544.341 2.912 1.582 1.982 6.699 6.214 12.65 11.918 16.753 1.05.756 1.289 2.221.533 3.271-.458.635-1.175.974-1.904.974"/></g></svg>